<svg xmlns="http://www.w3.org/2000/svg" version="1.1" xmlns:xlink="http://www.w3.org/1999/xlink" xmlns:svgjs="http://svgjs.dev/svgjs" width="1000" height="999" viewBox="0 0 1000 999"><g transform="matrix(1,0,0,1,-0.215743440233382,-0.21552769679306039)"><svg viewBox="0 0 343 343" data-background-color="#dedede" preserveAspectRatio="xMidYMid meet" height="999" width="1000" xmlns="http://www.w3.org/2000/svg" xmlns:xlink="http://www.w3.org/1999/xlink"><g id="tight-bounds" transform="matrix(1,0,0,1,0.0740000000000407,0.07400000000001228)"><svg viewBox="0 0 342.85155851775386 342.85155851775386" height="342.85155851775386" width="342.85155851775386"><g><svg></svg></g><g><svg viewBox="0 0 342.85155851775386 342.85155851775386" height="342.85155851775386" width="342.85155851775386"><g><path d="M0 171.426c0-94.676 76.75-171.426 171.426-171.426 94.676 0 171.426 76.75 171.426 171.426 0 94.676-76.75 171.426-171.426 171.426-94.676 0-171.426-76.75-171.426-171.426zM171.426 339.934c93.065 0 168.508-75.444 168.508-168.508 0-93.065-75.444-168.508-168.508-168.509-93.065 0-168.508 75.444-168.509 168.509 0 93.065 75.444 168.508 168.509 168.508z" data-fill-palette-color="tertiary" fill="#000000" stroke="transparent"></path><ellipse rx="164.56874808852186" ry="164.56874808852186" cx="171.42577925887693" cy="171.42577925887693" fill="#000000" stroke="transparent" stroke-width="0" fill-opacity="1" data-fill-palette-color="tertiary"></ellipse></g><g transform="matrix(1,0,0,1,64.84655864529837,129.0771431075485)"><svg viewBox="0 0 213.1584412271571 84.69727230265687" height="84.69727230265687" width="213.1584412271571"><g><svg viewBox="0 0 213.1584412271571 84.69727230265687" height="84.69727230265687" width="213.1584412271571"><g><svg viewBox="0 0 213.1584412271571 84.69727230265687" height="84.69727230265687" width="213.1584412271571"><g transform="matrix(1,0,0,1,0,52.346312169086694)"><svg viewBox="0 0 213.1584412271571 32.350960133570176" height="32.350960133570176" width="213.1584412271571"><g><svg viewBox="0 0 213.1584412271571 32.350960133570176" height="32.350960133570176" width="213.1584412271571"><g><svg viewBox="0 0 213.1584412271571 32.350960133570176" height="32.350960133570176" width="213.1584412271571"><g transform="matrix(1,0,0,1,0,0)"><svg width="213.1584412271571" viewBox="0 -31.040000915527344 242.97000122070312 36.880001068115234" height="32.350960133570176" data-palette-color="#dedede"><path d="M31.6-0.92L31.6-0.92Q31.6 4.52 34.08 4.52L34.08 4.52Q35.68 4.52 36.76 2.16L36.76 2.16Q37 1.76 37.48 1.92L37.48 1.92Q37.68 2 37.58 2.26 37.48 2.52 37.28 2.9 37.08 3.28 36.56 4.08L36.56 4.08Q35.36 5.84 33.8 5.84L33.8 5.84Q28.96 5.84 28.96-1.84L28.96-1.84Q28.96-10.48 35.08-28.84L35.08-28.84Q35.24-29.32 34.9-29.32 34.56-29.32 34.16-28.96L34.16-28.96Q32.04-26.96 29.82-23.6 27.6-20.24 25.92-16.8L25.92-16.8Q22.96-10.84 21.56-6.88L21.56-6.88Q19.68-1.32 18.24-1.32L18.24-1.32Q17.4-1.32 17.4-2.16L17.4-2.16Q17.4-2.2 17.44-2.24L17.44-2.24Q22.44-20.36 22.44-25L22.44-25Q22.44-27.08 21.52-27.08L21.52-27.08Q19.68-27.08 15.72-20.22 11.76-13.36 9.76-6.48L9.76-6.48Q7.36 1.8 5.52 1.8L5.52 1.8Q4.68 1.8 4.68 0.92L4.68 0.92Q4.72 0.8 4.92 0.24 5.12-0.32 5.44-1.42 5.76-2.52 6.46-4.9 7.16-7.28 7.64-9.52L7.64-9.52Q9.24-16.96 9.24-20.24L9.24-20.24Q9.24-22 9-23.74 8.76-25.48 7.8-26.56 6.84-27.64 5.28-27.64L5.28-27.64Q2.84-27.64 1.84-25.6L1.84-25.6Q1.52-24.88 1.52-24.38 1.52-23.88 1.8-23.88L1.8-23.88Q1.68-23.32 0.84-23.32 0-23.32 0-24.4L0-24.4Q0-26.04 1.66-27.32 3.32-28.6 5.44-28.6 7.56-28.6 8.82-27.54 10.08-26.48 10.64-24.72L10.64-24.72Q11.56-21.8 11.56-18.4L11.56-18.4Q11.56-17.12 11.4-15.76L11.4-15.76 11.8-15.76Q18.16-28.64 22.48-28.64L22.48-28.64Q24.96-28.64 24.96-24.4L24.96-24.4Q24.96-22.36 24.04-17.24L24.04-17.24 24.4-17.24Q31.72-31.04 36.4-31.04L36.4-31.04Q38.2-31.04 38.2-29.04L38.2-29.04Q36.96-25.96 35.44-20.64L35.44-20.64Q31.6-7.48 31.6-0.92ZM42.08 0L42.08 0Q38.8 0 38.8-5.16L38.8-5.16Q38.8-8.24 40.32-11.92L40.32-11.92Q42.44-17.08 45.88-18.96L45.88-18.96Q47.36-19.76 48.64-19.76 49.92-19.76 50.66-19.2 51.4-18.64 51.6-18.08L51.6-18.08 51.84-17.56Q51.72-16.88 51.16-16.88L51.16-16.88Q50.52-16.88 50.42-17.18 50.32-17.48 50.2-17.7 50.08-17.92 49.64-18.3 49.2-18.68 48.64-18.68L48.64-18.68Q46.04-18.68 43.92-14L43.92-14Q41.52-8.6 41.52-3.84L41.52-3.84Q41.52-1.44 42.48-1.44L42.48-1.44Q43.24-1.44 44.62-3.14 46-4.84 47.52-7.4L47.52-7.4Q50.16-11.8 51.8-15.04L51.8-15.04Q53.16-17.92 54.6-17.92L54.6-17.92Q55.36-17.92 55.36-17L55.36-17Q55-16.24 54.44-14.84 53.88-13.44 52.96-9.28 52.04-5.12 52.04-1 52.04 3.12 53.28 3.12L53.28 3.12Q53.76 3.12 54.16 2.7 54.56 2.28 54.88 1.44L54.88 1.44Q55 1 55.44 1L55.44 1Q55.6 1 55.68 1.12 55.76 1.24 55.68 1.52 55.6 1.8 55.4 2.3 55.2 2.8 54.54 3.64 53.88 4.48 53.16 4.48L53.16 4.48Q51.48 4.48 50.58 2.28 49.68 0.08 49.68-2.92 49.68-5.92 50.12-8.68L50.12-8.68 49.72-8.68Q44.64 0 42.08 0ZM67.64-4.88L67.64-4.88Q67.64-9.8 69.44-17.32L69.44-17.32Q69.56-17.72 69.2-17.68L69.2-17.68Q68.92-17.64 68.68-17.44L68.68-17.44Q66.92-15.96 64.8-11.96 62.68-7.96 61.4-4.66 60.12-1.36 60.12-0.8L60.12-0.8Q60.12-0.32 59.52-0.32L59.52-0.32Q58.32-0.32 58.32-3.48L58.32-3.48Q58.32-9.48 59.52-14.3 60.72-19.12 62.44-19.12L62.44-19.12Q63.2-19.12 63.2-18.28L63.2-18.28Q61.36-12.48 60.56-6.36L60.56-6.36 60.92-6.36Q66.2-19.56 70.64-19.56L70.64-19.56Q72.56-19.56 72.56-17.68L72.56-17.68Q70.68-12.08 69.84-6.64L69.84-6.64 70.16-6.64Q71.48-9.44 72.82-11.74 74.16-14.04 75.96-16.02 77.76-18 79.2-18L79.2-18Q81.12-18 81.12-16.16L81.12-16.16Q79.04-9.24 79.04-2.68L79.04-2.68Q79.04 1.56 80.32 1.56L80.32 1.56Q80.76 1.56 81.2 1.18 81.64 0.8 81.8 0.8L81.8 0.8Q82.36 0.8 81.76 1.68L81.76 1.68Q81.6 1.96 81.06 2.44 80.52 2.92 80 2.92L80 2.92Q78.44 2.92 77.58 0.74 76.72-1.44 76.72-4.92L76.72-4.92Q76.72-11.04 78-15.68L78-15.68Q78.08-15.96 77.8-15.96L77.8-15.96Q77.56-15.92 77.32-15.72L77.32-15.72Q75.04-13.76 72.24-8.46 69.44-3.16 69.44-2.2L69.44-2.2Q69.44-1.72 68.8-1.72L68.8-1.72Q67.64-1.72 67.64-4.88ZM98.43 3L98.43 3Q98.91 3 99.33 2.58 99.75 2.16 100.11 1.28L100.11 1.28Q100.15 0.92 100.59 0.92 101.03 0.92 100.93 1.28 100.83 1.64 100.61 2.16 100.39 2.68 99.69 3.54 98.99 4.4 98.27 4.4L98.27 4.4Q96.67 4.4 95.79 2.4L95.79 2.4Q94.87 0.4 94.87-2.54 94.87-5.48 95.31-8.6L95.31-8.6 94.95-8.6Q90.11-0.16 87.51-0.16L87.51-0.16Q84.43-0.16 84.43-4.86 84.43-9.56 86.43-14.24L86.43-14.24Q88.63-19.4 90.31-19.4L90.31-19.4Q91.03-19.4 91.03-18.52L91.03-18.52Q89.35-14.08 88.15-9.88 86.95-5.68 86.95-3.62 86.95-1.56 87.91-1.56L87.91-1.56Q88.59-1.56 89.93-3.2 91.27-4.84 92.67-7.2L92.67-7.2Q95.67-12.28 97.25-15.84 98.83-19.4 100.51-19.4L100.51-19.4Q101.31-19.4 101.31-18.52L101.31-18.52Q98.75-13.44 97.67-6.4L97.67-6.4Q97.23-3.6 97.23-0.92L97.23-0.92Q97.23 3 98.43 3ZM106.27-1.36L106.27-1.36Q106.27 1.44 108.07 1.44L108.07 1.44Q109.75 1.44 111.21-1.32 112.67-4.08 112.67-8.28L112.67-8.28Q112.67-10.32 111.93-14.04 111.19-17.76 111.19-18.9 111.19-20.04 111.27-20.4L111.27-20.4Q110.75-19.56 108.27-14.82 105.79-10.08 103.87-7.32L103.87-7.32Q103.71-7.16 103.43-7.22 103.15-7.28 102.97-7.46 102.79-7.64 102.79-7.72 102.79-7.8 102.83-7.84L102.83-7.84Q104.71-10.56 107.21-15.34 109.71-20.12 111.39-22.48 113.07-24.84 114.71-24.84L114.71-24.84Q115.55-24.84 115.55-24.12L115.55-24.12Q115.55-23.64 114.87-22.84L114.87-22.84Q112.71-20.4 112.71-17.84L112.71-17.84Q112.71-16.32 113.87-11.98 115.03-7.64 115.03-5.68L115.03-5.68Q115.03-2.16 113.07 0.3 111.11 2.76 108.63 2.76L108.63 2.76Q105.11 2.76 105.11-1.28L105.11-1.28Q105.11-4.32 106.97-7.64 108.83-10.96 110.71-12.12L110.71-12.12Q111.07-12.36 111.17-11.84 111.27-11.32 111.03-11.16L111.03-11.16Q108.91-9.96 107.35-6.04L107.35-6.04Q106.27-3.28 106.27-1.36ZM125.91-11.6Q123.79-7.76 122.61-4.8 121.43-1.84 121.43-1.3 121.43-0.76 120.87-0.76L120.87-0.76Q119.67-0.76 119.67-3.96L119.67-3.96Q119.67-10.32 120.95-16.74 122.23-23.16 123.99-27.02 125.75-30.88 127.27-30.88L127.27-30.88Q127.91-30.88 127.91-30.24L127.91-30.24Q125.79-25.56 124.37-19.56 122.95-13.56 121.99-6.76L121.99-6.76 122.27-6.76Q127.35-19.24 132.23-19.24L132.23-19.24Q134.27-19.24 134.27-17.28L134.27-17.28Q133.99-16.36 133.55-14.86 133.11-13.36 132.39-9.48 131.67-5.6 131.67-2.68L131.67-2.68Q131.67 1.56 132.91 1.56L132.91 1.56Q133.35 1.56 133.79 1.18 134.23 0.8 134.39 0.8L134.39 0.8Q134.95 0.8 134.35 1.68L134.35 1.68Q134.19 1.96 133.65 2.44 133.11 2.92 132.59 2.92L132.59 2.92Q131.03 2.92 130.17 0.74 129.31-1.44 129.31-4.92L129.31-4.92Q129.31-10.8 131.07-17.04L131.07-17.04Q131.15-17.64 130.59-17.56L130.59-17.56Q130.31-17.52 130.03-17.24L130.03-17.24Q128.03-15.44 125.91-11.6ZM173.42-27.28L173.42-27.28Q173.42-29.72 171.5-29.72L171.5-29.72Q168.94-29.72 166.12-25.42 163.3-21.12 161.34-15.74 159.38-10.36 158.08-6.08 156.78-1.8 156.78-1.28 156.78-0.76 156.22-0.76L156.22-0.76Q155.02-0.76 155.02-3.96L155.02-3.96Q155.02-11.68 156.76-18.96 158.5-26.24 160.62-28.68L160.62-28.68Q154.9-27.88 151.34-24.64L151.34-24.64Q149.3-22.84 149.3-20.72L149.3-20.72Q149.3-19.68 150.1-19.68L150.1-19.68Q149.94-19.12 149.22-19.12 148.5-19.12 147.96-19.68 147.42-20.24 147.42-21.24L147.42-21.24Q147.42-23.6 150.28-25.62 153.14-27.64 156.46-28.62 159.78-29.6 162.1-29.6L162.1-29.6Q162.74-29.6 162.74-28.96L162.74-28.96Q160.22-23.12 158.02-11.28L158.02-11.28 158.34-11.28Q160.7-18.64 163.82-24.28L163.82-24.28Q165.5-27.36 167.54-29.14 169.58-30.92 171.7-30.92L171.7-30.92Q176.02-30.92 176.02-26.28L176.02-26.28Q176.02-23.48 174.06-20.04L174.06-20.04Q171.58-15.64 167.82-13.8L167.82-13.8Q165.82-12.8 163.82-12.8L163.82-12.8Q163.34-12.8 163.08-13.08 162.82-13.36 162.74-13.88L162.74-13.88Q166.5-13.88 169.86-18.36L169.86-18.36Q172.62-22 173.26-25.8L173.26-25.8Q173.42-26.6 173.42-27.28ZM176.9 0L176.9 0Q173.62 0 173.62-5.16L173.62-5.16Q173.62-8.24 175.14-11.92L175.14-11.92Q177.26-17.08 180.7-18.96L180.7-18.96Q182.18-19.76 183.46-19.76 184.74-19.76 185.48-19.2 186.22-18.64 186.42-18.08L186.42-18.08 186.66-17.56Q186.54-16.88 185.98-16.88L185.98-16.88Q185.34-16.88 185.24-17.18 185.14-17.48 185.02-17.7 184.9-17.92 184.46-18.3 184.02-18.68 183.46-18.68L183.46-18.68Q180.86-18.68 178.74-14L178.74-14Q176.34-8.6 176.34-3.84L176.34-3.84Q176.34-1.44 177.3-1.44L177.3-1.44Q178.06-1.44 179.44-3.14 180.82-4.84 182.34-7.4L182.34-7.4Q184.98-11.8 186.62-15.04L186.62-15.04Q187.98-17.92 189.42-17.92L189.42-17.92Q190.18-17.92 190.18-17L190.18-17Q189.82-16.24 189.26-14.84 188.7-13.44 187.78-9.28 186.86-5.12 186.86-1 186.86 3.12 188.1 3.12L188.1 3.12Q188.58 3.12 188.98 2.7 189.38 2.28 189.7 1.44L189.7 1.44Q189.82 1 190.26 1L190.26 1Q190.42 1 190.5 1.12 190.58 1.24 190.5 1.52 190.42 1.8 190.22 2.3 190.02 2.8 189.36 3.64 188.7 4.48 187.98 4.48L187.98 4.48Q186.3 4.48 185.4 2.28 184.5 0.08 184.5-2.92 184.5-5.92 184.94-8.68L184.94-8.68 184.54-8.68Q179.46 0 176.9 0ZM193.7-3.4L193.7-3.4Q193.7-9.32 194.92-13.96 196.14-18.6 198.02-18.6L198.02-18.6Q198.94-18.6 198.94-17.6L198.94-17.6Q198.54-16.56 197.94-14.84 197.34-13.12 196.36-8.62 195.38-4.12 195.38-0.6L195.38-0.6Q195.38-0.04 194.78-0.04L194.78-0.04Q193.7-0.04 193.7-3.4ZM199.54-23.04L199.06-22.36Q198.22-22.36 198.22-23.96L198.22-23.96Q198.22-24.92 198.74-25.98 199.26-27.04 200.22-27.04L200.22-27.04Q201.02-27.04 201.02-26.12L201.02-26.12Q201.02-25.2 199.54-23.04L199.54-23.04ZM204.1-6.48L204.46-6.48Q209.62-19.24 214.5-19.24L214.5-19.24Q216.54-19.24 216.54-17.28L216.54-17.28Q216.26-16.36 215.82-14.86 215.38-13.36 214.64-9.48 213.9-5.6 213.9-2.68L213.9-2.68Q213.9 1.56 215.14 1.56L215.14 1.56Q215.62 1.56 216.06 1.18 216.5 0.8 216.66 0.8L216.66 0.8Q217.22 0.8 216.66 1.68L216.66 1.68Q216.46 1.96 215.92 2.44 215.38 2.92 214.82 2.92L214.82 2.92Q213.3 2.92 212.44 0.74 211.58-1.44 211.58-4.92L211.58-4.92Q211.58-10.44 213.3-17.04L213.3-17.04Q213.46-17.56 212.98-17.56L212.98-17.56Q212.66-17.56 212.26-17.24L212.26-17.24Q210.34-15.56 208.22-11.68 206.1-7.8 204.9-4.74 203.7-1.68 203.7-1.18 203.7-0.68 203.14-0.68L203.14-0.68Q201.86-0.68 201.86-3.84L201.86-3.84Q201.86-9.8 203.08-14.64 204.3-19.48 206.02-19.48L206.02-19.48Q206.74-19.48 206.74-18.6L206.74-18.6Q204.9-12.64 204.1-6.48L204.1-6.48ZM221.65-17.32L221.65-17.32Q220.09-17.32 220.09-18.6L220.09-18.6Q220.09-19.08 220.49-19.2L220.49-19.2Q220.53-19.24 220.61-19.24L220.61-19.24Q220.85-18.96 221.51-18.96 222.17-18.96 223.61-19.04L223.61-19.04Q225.49-24.12 227.21-24.12L227.21-24.12Q227.89-24.12 227.89-23.36L227.89-23.36Q227.25-21.76 226.45-19.24L226.45-19.24Q230.41-19.68 231.61-19.68L231.61-19.68Q231.93-19.68 231.93-19.36L231.93-19.36Q231.93-18.72 231.09-18.72L231.09-18.72Q230.65-18.72 226.01-17.88L226.01-17.88Q222.85-7.88 222.85-1.68 222.85 4.52 225.33 4.52L225.33 4.52Q226.33 4.52 227.21 3.66 228.09 2.8 228.45 1.96L228.45 1.96Q228.61 1.52 229.13 1.72L229.13 1.72Q229.37 1.8 229.29 1.96L229.29 1.96Q229.05 2.48 228.69 3.16 228.33 3.84 227.29 4.84 226.25 5.84 225.17 5.84L225.17 5.84Q220.41 5.84 220.41-2.44L220.41-2.44Q220.41-9.44 223.01-17.4L223.01-17.4Q222.45-17.32 221.65-17.32ZM233.69-1.36L233.69-1.36Q233.69 1.44 235.49 1.44L235.49 1.44Q237.17 1.44 238.63-1.32 240.09-4.08 240.09-8.28L240.09-8.28Q240.09-10.32 239.35-14.04 238.61-17.76 238.61-18.9 238.61-20.04 238.69-20.4L238.69-20.4Q238.17-19.56 235.69-14.82 233.21-10.08 231.29-7.32L231.29-7.32Q231.13-7.16 230.85-7.22 230.57-7.28 230.39-7.46 230.21-7.64 230.21-7.72 230.21-7.8 230.25-7.84L230.25-7.84Q232.13-10.56 234.63-15.34 237.13-20.12 238.81-22.48 240.49-24.84 242.13-24.84L242.13-24.84Q242.97-24.84 242.97-24.12L242.97-24.12Q242.97-23.64 242.29-22.84L242.29-22.84Q240.13-20.4 240.13-17.84L240.13-17.84Q240.13-16.32 241.29-11.98 242.45-7.64 242.45-5.68L242.45-5.68Q242.45-2.16 240.49 0.3 238.53 2.76 236.05 2.76L236.05 2.76Q232.53 2.76 232.53-1.28L232.53-1.28Q232.53-4.32 234.39-7.64 236.25-10.96 238.13-12.12L238.13-12.12Q238.49-12.36 238.59-11.84 238.69-11.32 238.45-11.16L238.45-11.16Q236.33-9.96 234.77-6.04L234.77-6.04Q233.69-3.28 233.69-1.36Z" opacity="1" transform="matrix(1,0,0,1,0,0)" fill="#dedede" class="undefined-text-0" data-fill-palette-color="quaternary" id="text-0"></path></svg></g></svg></g></svg></g></svg></g><g transform="matrix(1,0,0,1,94.43579228863197,0)"><svg viewBox="0 0 24.286856649893167 44.70902690459398" height="44.70902690459398" width="24.286856649893167"><g><svg xmlns="http://www.w3.org/2000/svg" xmlns:xlink="http://www.w3.org/1999/xlink" version="1.1" x="0" y="0" viewBox="25.553997039794922 4.999425411224365 48.890567779541016 90.0013427734375" enable-background="new 0 0 100 100" xml:space="preserve" height="44.70902690459398" width="24.286856649893167" class="icon-icon-0" data-fill-palette-color="quaternary" id="icon-0"><path d="M46.522 57.633c8.39 0 17.174-2.042 20.968-5.901v37.571c-21.72 12.82-41.936 0-41.936 0V51.731C29.348 55.591 38.133 57.633 46.522 57.633zM60.862 40.497c-0.617 0.548-2.509 3.079-2.509 3.079s2.712 1.231 2.743 3.105c0.048 2.944-6.526 5.331-14.574 5.331s-14.574-2.386-14.574-5.331c-0.076-2.822 5.817-4.255 5.817-4.255s-2.101-1.703-2.819-2.651c-6.001 1.456-9.392 3.921-9.392 6.906 0 4.574 9.389 8.289 20.968 8.289 11.581 0 20.968-3.715 20.968-8.289C67.49 44.185 65.287 42.016 60.862 40.497zM72.583 12.743c-1.015 1.231-8.395 8.211-12.249 11.833l2.409 1.953c1.866 1.517 2.432 4.018 1.562 6.121L48.539 19.86c1.902-1.272 4.481-1.216 6.348 0.293l2.773 2.251c2.519-4.415 7.318-12.706 8.858-14.58 2.124-2.584 5.198-3.576 6.875-2.213C75.066 6.969 74.704 10.159 72.583 12.743zM72.295 6.943c-0.711-0.578-2.495 0.431-3.989 2.243-1.488 1.819-2.126 3.755-1.415 4.331 0.712 0.576 2.496-0.426 3.99-2.243C72.372 9.46 73.007 7.521 72.295 6.943zM36.507 38.197c0.051 0.396 0.227 0.76 0.545 1.018 0.352 0.29 0.806 0.39 1.252 0.321 0.018 0.443 0.209 0.864 0.563 1.152 0.326 0.27 0.742 0.367 1.157 0.326 0.041 0.407 0.219 0.795 0.548 1.058 0.331 0.272 0.75 0.37 1.165 0.324 0.041 0.415 0.222 0.8 0.55 1.068 0.347 0.282 0.785 0.38 1.219 0.323 0.03 0.434 0.214 0.841 0.558 1.121 0.329 0.269 0.742 0.362 1.16 0.322 0.038 0.412 0.219 0.795 0.548 1.06 0.324 0.266 0.727 0.36 1.132 0.324 0.043 0.405 0.225 0.78 0.546 1.037 0.331 0.271 0.75 0.373 1.165 0.326 0.041 0.414 0.222 0.801 0.551 1.068 0.711 0.579 1.815 0.4 2.468-0.395 0.168-0.204 0.29-0.431 0.367-0.663l3.255-3.962L39.127 30.944l-3.256 3.959c-0.214 0.122-0.416 0.283-0.583 0.487-0.653 0.796-0.607 1.904 0.104 2.483C35.711 38.13 36.109 38.225 36.507 38.197zM63.503 33.993c0.102-0.127 0.198-0.26 0.29-0.393l-16.09-13.052c-0.112 0.117-0.225 0.234-0.329 0.359l-7.008 8.525 16.126 13.09L63.503 33.993z" fill="#dedede" data-fill-palette-color="quaternary"></path></svg></g></svg></g><g></g></svg></g></svg></g></svg></g></svg></g><defs></defs></svg><rect width="342.85155851775386" height="342.85155851775386" fill="none" stroke="none" visibility="hidden"></rect></g></svg></g></svg>